<?xml version="1.0" encoding="UTF-8"?>
<!--Generator: Apple Native CoreSVG 326-->
<!DOCTYPE svg
PUBLIC "-//W3C//DTD SVG 1.1//EN"
       "http://www.w3.org/Graphics/SVG/1.1/DTD/svg11.dtd">
<svg version="1.1" xmlns="http://www.w3.org/2000/svg" xmlns:xlink="http://www.w3.org/1999/xlink" viewBox="0 0 22.0563 30.3398">
 <g>
  <rect height="30.3398" opacity="0" width="22.0563" x="0" y="0"/>
  <path d="M0.00128669 16.0368C0.00128669 22.1184 4.93652 27.0642 11.0288 27.0642C17.1266 27.0642 22.0563 22.1184 22.0563 16.0368C22.0563 15.501 21.6904 15.1296 21.1653 15.1296C20.6557 15.1296 20.332 15.501 20.332 16.0262C20.332 21.1636 16.1662 25.3134 11.0288 25.3134C5.89136 25.3134 1.73106 21.1636 1.73106 16.0262C1.73106 10.8888 5.89136 6.72295 11.0288 6.72295C12.1085 6.72295 13.1466 6.81595 13.9714 7.02156L9.82598 11.158C9.65058 11.3229 9.5762 11.5455 9.5762 11.7741C9.5762 12.2566 9.94758 12.6335 10.4255 12.6335C10.7014 12.6335 10.8924 12.538 11.0461 12.3892L16.3499 7.03014C16.5696 6.80497 16.6601 6.59238 16.6601 6.34312C16.6601 6.1039 16.5535 5.86469 16.3499 5.66113L11.0517 0.259805C10.9085 0.0954706 10.7019 0 10.42 0C9.94205 0 9.5762 0.392472 9.5762 0.87493C9.5762 1.11414 9.66113 1.33175 9.81541 1.50714L13.5714 5.28071C12.8596 5.11834 11.9552 5.00926 11.0288 5.00926C4.93652 5.00926 0.00128669 9.93895 0.00128669 16.0368Z" fill="white" fill-opacity="0.85"/>
 </g>
</svg>
